IKResults
version=1
nRows=14
nColumns=44
inDegrees=yes

Units are S.I. units (second, meters, Newtons, ...)
Angles are in degrees.

endheader
time	ground_spine_rot_x	ground_spine_rot_y	ground_spine_rot_z	ground_spine_tx	ground_spine_ty	ground_spine_tz	clav_prot	clav_elev	scapula_abduction	scapula_elevation	scapula_upward_rot	scapula_winging	plane_elv	shoulder_elv	axial_rot	elbow_flexion	pro_sup	clav_prot_l	clav_elev_l	pitch2	roll2	yaw2	aux7jnt_r3	aux7jnt_r1	aux7jnt_r2	aux6jnt_r3	aux6jnt_r1	aux6jnt_r2	aux5jnt_r3	aux5jnt_r1	aux5jnt_r2	aux4jnt_r3	aux4jnt_r1	aux4jnt_r2	aux3jnt_r3	aux3jnt_r1	aux3jnt_r2	pitch1	roll1	yaw1	aux1jnt_r3	aux1jnt_r1	aux1jnt_r2
     73.67000000	      1.06631054	     -4.12381375	     -1.12807453	     -0.84057762	      1.09562311	      0.92266829	    -19.91993241	     -2.12957706	     12.40344833	    -16.37134671	     11.99814716	     15.23261719	    -67.83281535	     38.38488185	     51.95697067	      0.00000000	     34.32000000	     30.42326055	     -1.16071730	      0.47943862	     -0.05849759	      0.03994267	      5.13685898	     -0.45917773	      0.43024668	      6.04334869	     -0.52621181	      0.50119132	      6.04334869	     -0.72395915	      0.50119132	      4.53251152	     -0.72395915	      0.50119132	      3.02167434	     -0.65692700	      0.21512334	     -0.05368538	      0.02311019	      0.02236297	     -1.71022504	      0.66205804	      0.14222497
     73.68000000	      1.07172572	     -4.12617169	     -1.10712333	     -0.84070913	      1.09562559	      0.92263587	    -19.99271022	     -2.11506810	     12.28729033	    -16.36643279	     11.99801172	     15.29214823	    -67.95569535	     38.28096562	     54.12323705	      0.00000000	     34.32000000	     30.42326055	     -1.16071730	      0.46951411	     -0.06000775	      0.04221416	      5.03052461	     -0.47103170	      0.45471429	      5.91824974	     -0.53979630	      0.52969347	      5.91824974	     -0.74264862	      0.52969347	      4.43868730	     -0.74264862	      0.52969347	      2.95912487	     -0.67388599	      0.22735715	     -0.06562070	      0.02312458	      0.01851091	     -2.09044167	      0.66247037	      0.11772650
     73.69000000	      1.07518015	     -4.09482406	     -1.09465656	     -0.84095441	      1.09561764	      0.92256012	    -20.03366467	     -2.13431750	     12.23124133	    -16.38910040	     11.99841341	     15.33208494	    -67.87404120	     38.37797002	     52.84709519	      0.00000000	     34.32000000	     30.42326055	     -1.16071730	      0.45650845	     -0.05999017	      0.03896219	      4.89117780	     -0.47089373	      0.41968535	      5.75431272	     -0.53963819	      0.48888850	      5.75431272	     -0.74243109	      0.48888850	      4.31573454	     -0.74243109	      0.48888850	      2.87715636	     -0.67368860	      0.20984267	     -0.07287390	      0.02305242	      0.02078093	     -2.32150295	      0.66040307	      0.13216347
     73.70000000	      1.07543598	     -4.07394605	     -1.08120004	     -0.84117599	      1.09562109	      0.92251890	    -20.13354606	     -2.13441200	     12.07740048	    -16.40056160	     11.99763334	     15.41853941	    -67.48998696	     38.37869338	     49.51069090	      0.00000000	     34.32000000	     30.42326055	     -1.16071730	      0.44536066	     -0.05970647	      0.03487924	      4.77173679	     -0.46866683	      0.37570537	      5.61379423	     -0.53708619	      0.43765653	      5.61379423	     -0.73892006	      0.43765653	      4.21034567	     -0.73892006	      0.43765653	      2.80689712	     -0.67050266	      0.18785269	     -0.08346540	      0.02309881	      0.02400079	     -2.65891032	      0.66173211	      0.15264127
     73.71000000	      1.08551432	     -4.09813400	     -1.03821096	     -0.84130884	      1.09559221	      0.92251540	    -20.08885595	     -2.14981362	     12.15128857	    -16.40967165	     11.99788774	     15.38364031	    -66.88926949	     38.27914784	     49.27465377	      0.00000000	     34.32000000	     30.42326055	     -1.16071730	      0.42674408	     -0.06611124	      0.03435491	      4.57227276	     -0.51894114	      0.37005758	      5.37913123	     -0.59469991	      0.43107746	      5.37913123	     -0.81818469	      0.43107746	      4.03434843	     -0.81818469	      0.43107746	      2.68956562	     -0.74242809	      0.18502879	     -0.08442848	      0.03355618	      0.02650106	     -2.68959059	      0.96131389	      0.16854257
     73.72000000	      1.07204461	     -4.08967626	     -1.00367522	     -0.84134646	      1.09560602	      0.92256222	    -20.16182353	     -2.12877942	     12.03270093	    -16.39885319	     11.99827665	     15.44138407	    -67.73311921	     38.36011843	     49.95946751	      0.00000000	     34.32000000	     30.42326055	     -1.16071730	      0.41592869	     -0.06009226	      0.03387305	      4.45639317	     -0.47169506	      0.36486717	      5.24280265	     -0.54055650	      0.42503119	      5.24280265	     -0.74369451	      0.42503119	      3.93210199	     -0.74369451	      0.42503119	      2.62140132	     -0.67483504	      0.18243359	     -0.09621486	      0.02425118	      0.02522003	     -3.06506270	      0.69474510	      0.16039544
     73.73000000	      1.06813878	     -4.08716869	     -0.96957649	     -0.84148753	      1.09561157	      0.92260524	    -20.18261133	     -2.15571190	     12.00949350	    -16.42607208	     11.99799733	     15.46592664	    -67.74627738	     38.36272726	     50.39911871	      0.00000000	     34.32000000	     30.42326055	     -1.16071730	      0.40171708	     -0.06239734	      0.03323467	      4.30412541	     -0.48978882	      0.35799076	      5.06366454	     -0.56129172	      0.41702091	      5.06366454	     -0.77222189	      0.41702091	      3.79774840	     -0.77222189	      0.41702091	      2.53183227	     -0.70072104	      0.17899538	     -0.10336048	      0.02638624	      0.02517478	     -3.29269653	      0.75590998	      0.16010763
     73.74000000	      1.06420265	     -4.09655819	     -0.94864886	     -0.84171724	      1.09561149	      0.92260354	    -20.19011549	     -2.16231873	     11.99970883	    -16.43288565	     11.99747904	     15.47414254	    -67.65683124	     38.29121093	     50.22251765	      0.00000000	     34.32000000	     30.42326055	     -1.16071730	      0.38934105	     -0.06147598	      0.03185745	      4.17152474	     -0.48255664	      0.34315591	      4.90766413	     -0.55300374	      0.39973989	      4.90766413	     -0.76081933	      0.39973989	      3.68074810	     -0.76081933	      0.39973989	      2.45383207	     -0.69037426	      0.17157795	     -0.11242919	      0.02553892	      0.02665930	     -3.58159334	      0.73163628	      0.16954897
     73.75000000	      1.09501052	     -4.07657944	     -0.89087137	     -0.84173406	      1.09566592	      0.92241056	    -20.20792191	     -2.13476602	     11.96472307	    -16.41004352	     11.99922658	     15.48229880	    -67.41039687	     38.37496190	     50.05226392	      0.00000000	     34.32000000	     30.42326055	     -1.16071730	      0.37386821	     -0.06815267	      0.03038056	      4.00574375	     -0.53496536	      0.32724741	      4.71262816	     -0.61306346	      0.38120820	      4.71262816	     -0.84344915	      0.38120820	      3.53447112	     -0.84344915	      0.38120820	      2.35631408	     -0.76535329	      0.16362371	     -0.11802893	      0.03330617	      0.02767703	     -3.75998130	      0.95415140	      0.17602158
     73.76000000	      1.05371593	     -4.15554425	     -0.84994794	     -0.84178169	      1.09569664	      0.92275897	    -20.24514502	     -2.25595387	     11.94655607	    -16.52590123	     11.99752642	     15.54443505	    -67.13580000	     38.29530028	     49.80693256	      0.00000000	     34.32000000	     30.42326055	     -1.16071730	      0.35832362	     -0.06581730	      0.03085640	      3.83919399	     -0.51663385	      0.33237296	      4.51668774	     -0.59205578	      0.38717892	      4.51668774	     -0.81454690	      0.38717892	      3.38751580	     -0.81454690	      0.38717892	      2.25834387	     -0.73912714	      0.16618648	     -0.12230022	      0.03313922	      0.02925209	     -3.89604917	      0.94936878	      0.18603873
     73.77000000	      1.06498655	     -4.12267781	     -0.79345387	     -0.84182875	      1.09570370	      0.92256623	    -20.25577846	     -2.20644481	     11.91327221	    -16.48121760	     11.99713327	     15.54157214	    -66.43668238	     38.27986470	     49.40242855	      0.00000000	     34.32000000	     30.42326055	     -1.16071730	      0.33949237	     -0.06563807	      0.03009808	      3.63742999	     -0.51522699	      0.32420463	      4.27931891	     -0.59044353	      0.37766368	      4.27931891	     -0.81232879	      0.37766368	      3.20948919	     -0.81232879	      0.37766368	      2.13965946	     -0.73711440	      0.16210231	     -0.12357323	      0.03406379	      0.03015271	     -3.93660274	      0.97585583	      0.19176655
     73.78000000	      1.07263204	     -4.16696955	     -0.72942965	     -0.84177233	      1.09573834	      0.92256045	    -20.32853603	     -2.22979239	     11.80920082	    -16.51126928	     11.99708848	     15.60992788	    -66.01916006	     38.27861539	     49.06142769	      0.00000000	     34.32000000	     30.42326055	     -1.16071730	      0.32264020	     -0.06600250	      0.02963654	      3.45687048	     -0.51808759	      0.31923313	      4.06689648	     -0.59372175	      0.37187242	      4.06689648	     -0.81683894	      0.37187242	      3.05017236	     -0.81683894	      0.37187242	      2.03344824	     -0.74120695	      0.15961657	     -0.12733679	      0.03473438	      0.03054991	     -4.05649655	      0.99506673	      0.19429266
     73.79000000	      1.07147983	     -4.13499196	     -0.74661495	     -0.84212933	      1.09567892	      0.92250976	    -20.37130630	     -2.20749932	     11.73662862	    -16.49587728	     11.99792651	     15.64102457	    -66.77888588	     38.35014824	     49.13393176	      0.00000000	     34.32000000	     30.42326055	     -1.16071730	      0.31997044	     -0.06475913	      0.02945448	      3.42826582	     -0.50832779	      0.31727207	      4.03324402	     -0.58253715	      0.36958799	      4.03324402	     -0.80145123	      0.36958799	      3.02493301	     -0.80145123	      0.36958799	      2.01662201	     -0.72724400	      0.15863604	     -0.14553454	      0.03230272	      0.02985782	     -4.63621205	      0.92540489	      0.18989104
     73.80000000	      1.08454496	     -4.09506477	     -0.70542123	     -0.84223834	      1.09571141	      0.92231788	    -20.38535119	     -2.20143814	     11.71268564	    -16.49179906	     11.99762350	     15.65169374	    -66.42150039	     38.33022041	     48.71389974	      0.00000000	     34.32000000	     30.42326055	     -1.16071730	      0.30475277	     -0.06524257	      0.02959107	      3.26521883	     -0.51212254	      0.31874332	      3.84142450	     -0.58688588	      0.37130184	      3.84142450	     -0.80743419	      0.37130184	      2.88106838	     -0.80743419	      0.37130184	      1.92071225	     -0.73267299	      0.15937166	     -0.14973186	      0.03515682	      0.03066583	     -4.76992377	      1.00716884	      0.19502988
